<svg id="Layer_1" data-name="Layer 1" xmlns="http://www.w3.org/2000/svg" viewBox="0 0 43.43 43.43"><defs><style>.cls-1{fill:#9e77ed;}.cls-2{fill:#6941c6;}</style></defs><title>logo</title><path class="cls-1" d="M345.5,293.93a11,11,0,0,1,7-7l19.13-5.13c3.07-.82,4.89,1,4.07,4.07L370.61,305a11,11,0,0,1-7,7l-19.13,5.13c-3.07.82-4.89-1-4.07-4.07Z" transform="translate(-332.51 -273.9)"/><path class="cls-2" d="M337.83,286.26a11,11,0,0,1,7-7L364,274.09c3.07-.82,4.89,1,4.07,4.07l-5.13,19.13a11,11,0,0,1-7,7l-19.13,5.13c-3.07.82-4.89-1-4.07-4.07Z" transform="translate(-332.51 -273.9)"/></svg>